# xmcd CD database file
#
# Track frame offsets:
#	150
#	16829
#	32882
#	55412
#	76071
#	101954
#	122924
#	144995
#	162713
#	185779
#	206591
#	227211
#	250206
#	271942
#	294009
#
# Disc length: 4560 seconds
#
# Revision: 0
# Processed by: cddbd v1.5.1PL2 Copyright (c) Steve Scherf et al.
# Submitted via: CDex 1.51
#
DISCID=d811ce0f
DTITLE=槇原敬之 - Completely Recorded Disc-2
DYEAR=2004
DGENRE=JPop
TTITLE0=槇原敬之 - 素直
TTITLE1=槇原敬之 - モンタージュ
TTITLE2=槇原敬之 - 足音
TTITLE3=槇原敬之 - HAPPY DANCE
TTITLE4=槇原敬之 - STRIPE!
TTITLE5=槇原敬之 - Hungry Spider
TTITLE6=槇原敬之 - 桃
TTITLE7=槇原敬之 - Are you OK?
TTITLE8=槇原敬之 - 雨ニモ負ケズ
TTITLE9=槇原敬之 - 花火の夜
TTITLE10=槇原敬之 - これはただの例え話じゃない
TTITLE11=槇原敬之 - Wow
TTITLE12=槇原敬之 - 君の名前を呼んだ後に
TTITLE13=槇原敬之 - Good Morning!
TTITLE14=槇原敬之 - 優しい歌が歌えない
EXTD=YEAR: 2004
EXTT0=
EXTT1=
EXTT2=
EXTT3=
EXTT4=
EXTT5=
EXTT6=
EXTT7=
EXTT8=
EXTT9=
EXTT10=
EXTT11=
EXTT12=
EXTT13=
EXTT14=
PLAYORDER=
